# xmcd
#
# Track frame offsets: 
#        150
#        16163
#        33000
#        45825
#        59480
#        73318
#        92661
#        111668
#        130834
#        146352
#        158772
#
# Disc length: 2286 seconds
#
# Revision: 0
# Processed by: cddbd v1.5.2PL0 Copyright (c) Steve Scherf et al.
# Submitted via: ExactAudioCopyFreeDBPlugin 1.0
#
DISCID=8e08ec0b
DTITLE=美吉田月 - Ska Flavor loves ジブリ Songs
DYEAR=2010
DGENRE=Ska
TTITLE0=いつも何度でも
TTITLE1=となりのトトロ
TTITLE2=君をのせて
TTITLE3=愛は花、君はその種子
TTITLE4=ナウシカ・レクイム -Interude-
TTITLE5=やさしさに包まれたなら ~Loves Ghibli Mix~
TTITLE6=風の谷のナウシカ
TTITLE7=カントリー・ロード
TTITLE8=人生のメリーゴーランド -Interude-
TTITLE9=Arrietty's Song
TTITLE10=崖の上のポニョ
EXTD=
EXTT0=
EXTT1=
EXTT2=
EXTT3=
EXTT4=
EXTT5=
EXTT6=
EXTT7=
EXTT8=
EXTT9=
EXTT10=
PLAYORDER=
